<?xml version="1.0" encoding="UTF-8"?>
<!DOCTYPE svg PUBLIC "-//W3C//DTD SVG 1.1//EN" "http://www.w3.org/Graphics/SVG/1.1/DTD/svg11.dtd">
<svg version="1.1" xmlns="http://www.w3.org/2000/svg" xmlns:xlink="http://www.w3.org/1999/xlink" x="0" y="0" width="164.636" height="35.437" viewBox="0, 0, 658.544, 141.748">
  <defs>
    <clipPath id="Clip_1">
      <path d="M114.816,-0 C106.875,13.755 98.933,27.511 90.991,41.266 L64.744,41.266 L59.566,50.237 L43.67,50.237 L56.798,27.501 L83.052,27.5 L90.987,13.756 L48.862,13.757 L19.859,63.995 C35.777,63.995 51.696,63.995 67.615,63.995 L72.741,55.116 L90.938,55.116 L100.035,70.874 L90.938,86.632 L72.741,86.632 L67.615,77.753 L51.622,77.753 L64.744,100.481 L90.989,100.481 L114.815,141.748 L40.92,141.748 L-0,70.874 L40.92,-0 L114.816,-0 z M35.727,77.753 L19.858,77.753 L48.862,127.99 L90.985,127.992 L83.051,114.248 L56.798,114.247 L35.727,77.753 z M126.731,6.879 L163.678,70.874 L126.73,134.87 C118.789,121.114 110.846,107.36 102.904,93.605 L116.028,70.874 L102.905,48.146 C110.843,34.387 118.787,20.633 126.731,6.879 z M126.731,34.394 L118.796,48.138 L131.921,70.874 L118.795,93.611 L126.73,107.354 L147.792,70.874 L126.731,34.394 z"/>
    </clipPath>
  </defs>
  <g id="Layer_1">
    <g id="Cometum_white_right_side">
      <g clip-path="url(#Clip_1)">
        <path d="M126.731,6.879 L163.678,70.874 L126.73,134.87 C118.789,121.114 110.846,107.36 102.904,93.605 L116.028,70.874 L102.905,48.146 C110.843,34.387 118.787,20.633 126.731,6.879 z M90.989,100.481 L64.744,100.481 L51.622,77.753 L67.615,77.753 L72.741,86.632 L90.938,86.632 L100.035,70.874 L90.938,55.116 L72.741,55.116 L67.615,63.995 C51.696,63.995 35.777,63.995 19.859,63.995 L48.862,13.757 L90.987,13.756 L83.052,27.5 L56.798,27.501 L43.67,50.237 L59.566,50.237 L64.744,41.266 L90.991,41.266 C98.933,27.511 106.875,13.755 114.816,-0 L40.92,-0 L-0,70.874 L40.92,141.748 L114.815,141.748 C106.872,127.992 98.932,114.237 90.989,100.481 z M83.051,114.248 L90.985,127.992 L48.862,127.99 L19.858,77.753 L35.727,77.753 L56.798,114.247 L83.051,114.248 z M126.73,107.354 L147.792,70.874 L126.731,34.394 L118.796,48.138 L131.921,70.874 L118.795,93.611 L126.73,107.354" fill="#172128"/>
      </g>
      <path d="M220.505,71.013 C220.505,74.322 221.001,77.286 221.993,79.893 C222.985,82.511 224.346,84.726 226.077,86.536 C227.806,88.347 229.87,89.731 232.246,90.689 C234.623,91.646 237.194,92.13 239.962,92.13 C241.612,92.13 243.192,91.808 244.726,91.161 C246.26,90.526 247.69,89.685 249.005,88.658 C250.319,87.644 251.495,86.478 252.534,85.188 C253.572,83.884 254.425,82.58 255.105,81.243 L258.416,83.376 C257.447,84.957 256.305,86.468 254.979,87.932 C253.665,89.397 252.142,90.689 250.4,91.808 C248.67,92.926 246.709,93.815 244.53,94.494 C242.338,95.163 239.894,95.509 237.194,95.509 C234.6,95.509 232.154,95.209 229.859,94.609 C227.563,94.01 225.453,93.18 223.527,92.106 C221.601,91.034 219.871,89.754 218.36,88.243 C216.838,86.732 215.546,85.071 214.509,83.261 C213.459,81.438 212.651,79.501 212.086,77.425 C211.521,75.361 211.244,73.215 211.244,71.013 C211.244,68.798 211.533,66.653 212.109,64.577 C212.674,62.49 213.505,60.528 214.565,58.695 C215.638,56.86 216.953,55.177 218.51,53.643 C220.067,52.109 221.808,50.795 223.758,49.698 C225.707,48.615 227.841,47.761 230.171,47.15 C232.489,46.549 234.968,46.239 237.598,46.239 C240.102,46.239 242.407,46.572 244.506,47.254 C246.617,47.934 248.543,48.823 250.285,49.941 C252.038,51.06 253.583,52.34 254.933,53.805 C256.282,55.27 257.447,56.792 258.416,58.371 L255.001,60.667 C253.018,56.86 250.815,54.07 248.382,52.294 C245.948,50.506 243.157,49.617 239.998,49.617 C237.275,49.617 234.727,50.113 232.362,51.105 C229.997,52.098 227.933,53.516 226.181,55.361 C224.427,57.207 223.032,59.456 222.016,62.085 C221.012,64.727 220.505,67.703 220.505,71.013 z M304.887,95.509 C302.454,95.509 300.124,95.209 297.887,94.609 C295.662,94.01 293.585,93.18 291.671,92.096 C289.755,91.012 288.014,89.708 286.434,88.185 C284.865,86.674 283.516,84.99 282.42,83.134 C281.313,81.289 280.46,79.304 279.849,77.194 C279.237,75.072 278.938,72.869 278.938,70.575 C278.938,68.313 279.237,66.157 279.849,64.08 C280.46,62.004 281.313,60.067 282.42,58.267 C283.516,56.469 284.865,54.831 286.434,53.354 C288.014,51.878 289.755,50.61 291.671,49.548 C293.585,48.499 295.662,47.68 297.887,47.104 C300.124,46.526 302.454,46.239 304.887,46.239 C307.321,46.239 309.651,46.526 311.877,47.104 C314.115,47.68 316.179,48.499 318.093,49.548 C320.008,50.61 321.761,51.878 323.341,53.354 C324.91,54.831 326.247,56.469 327.354,58.267 C328.462,60.067 329.316,62.004 329.927,64.08 C330.539,66.157 330.837,68.313 330.837,70.575 C330.837,72.847 330.539,75.049 329.927,77.172 C329.316,79.304 328.462,81.289 327.354,83.134 C326.247,84.99 324.91,86.674 323.341,88.185 C321.761,89.708 320.008,91.012 318.093,92.096 C316.179,93.18 314.115,94.01 311.877,94.609 C309.651,95.209 307.321,95.509 304.887,95.509 z M304.887,93.146 C307.564,93.146 309.939,92.58 312.016,91.449 C314.091,90.319 315.833,88.762 317.239,86.755 C318.646,84.749 319.72,82.373 320.446,79.604 C321.184,76.848 321.542,73.838 321.542,70.575 C321.542,67.345 321.184,64.392 320.446,61.705 C319.72,59.006 318.646,56.687 317.239,54.738 C315.833,52.79 314.091,51.279 312.016,50.195 C309.939,49.11 307.564,48.567 304.887,48.567 C302.143,48.567 299.721,49.11 297.645,50.195 C295.558,51.279 293.816,52.79 292.42,54.738 C291.025,56.687 289.963,59.006 289.26,61.705 C288.545,64.392 288.199,67.345 288.199,70.575 C288.199,73.838 288.545,76.848 289.26,79.604 C289.963,82.373 291.025,84.749 292.42,86.755 C293.816,88.762 295.558,90.319 297.645,91.449 C299.721,92.58 302.143,93.146 304.887,93.146 z M353.39,47.322 L361.462,47.322 L379.778,83.446 L380.146,83.446 L398.127,47.322 L406.063,47.322 L406.063,94.391 L398.127,94.391 L398.127,55.835 L397.85,55.835 L378.554,94.391 L376.941,94.391 L357.403,56.111 L356.861,56.111 L356.861,94.391 L353.39,94.391 L353.39,47.322 z M463.352,47.322 L463.352,50.367 L438.543,50.367 L438.543,67.195 L455.141,67.195 L455.141,70.228 L438.543,70.228 L438.543,91.346 L463.352,91.346 L463.352,94.391 L430.644,94.391 L430.644,47.322 L463.352,47.322 z M522.328,47.322 L522.328,50.367 L505.292,50.367 L505.292,94.391 L497.391,94.391 L497.391,50.367 L480.322,50.367 L480.322,47.322 L522.328,47.322 z M541.488,47.322 L549.4,47.322 L549.4,77.863 C549.4,79.869 549.745,81.761 550.426,83.526 C551.119,85.291 552.099,86.848 553.39,88.174 C554.67,89.5 556.216,90.55 558.014,91.311 C559.814,92.084 561.833,92.464 564.058,92.464 C566.319,92.464 568.349,92.084 570.148,91.311 C571.948,90.55 573.482,89.5 574.739,88.174 C576.007,86.848 576.975,85.291 577.644,83.526 C578.326,81.761 578.661,79.869 578.661,77.863 L578.661,47.322 L582.144,47.322 L582.144,77.863 C582.144,80.274 581.751,82.546 580.978,84.679 C580.194,86.802 578.97,88.671 577.31,90.284 C575.638,91.898 573.504,93.168 570.911,94.102 C568.302,95.037 565.176,95.509 561.533,95.509 C558.292,95.509 555.409,95.037 552.917,94.102 C550.414,93.168 548.315,91.888 546.631,90.273 C544.936,88.647 543.656,86.755 542.791,84.587 C541.926,82.43 541.488,80.136 541.488,77.701 L541.488,47.322 z M605.872,47.322 L613.945,47.322 L632.26,83.446 L632.628,83.446 L650.61,47.322 L658.544,47.322 L658.544,94.391 L650.61,94.391 L650.61,55.835 L650.333,55.835 L631.037,94.391 L629.423,94.391 L609.885,56.111 L609.343,56.111 L609.343,94.391 L605.872,94.391 L605.872,47.322" fill="#172128"/>
    </g>
  </g>
</svg>
